<?xml version="1.0" encoding="utf-8"?>
<!-- Generator: Adobe Illustrator 25.0.0, SVG Export Plug-In . SVG Version: 6.00 Build 0)  -->
<svg version="1.1" id="output" xmlns="http://www.w3.org/2000/svg" xmlns:xlink="http://www.w3.org/1999/xlink" x="0px" y="0px"
	 viewBox="0 0 430.3 66.1" style="enable-background:new 0 0 430.3 66.1;" xml:space="preserve">
<style type="text/css">
	.st0{fill:#0782C7;}
	.st1{fill:#FFFFFF;}
	.st2{fill:#C7204B;}
	.st3{fill:#F0C431;}
	.st4{fill:#929496;}
	.st5{fill:#6FB353;}
</style>
<g>
	<path d="M154.4,7.6c2.2,0,3.1,1.2,3.1,3.3c0,2.9-0.9,3.8-3.1,3.8h-2.9V7.6H154.4z M154.4,13.6c1.3,0,1.8-0.6,1.8-2.6
		c0-1.5-0.5-2.3-1.8-2.3h-1.8v4.9H154.4z"/>
	<path d="M159.1,14.7v-1h2.1v-3.1h-2.1v-1h3.2v4.1h2v1C164.3,14.7,159.1,14.7,159.1,14.7z M160.6,6.7h1.8v1.8h-1.8V6.7z"/>
	<path d="M167.3,15.2c0.1,0.4,0.6,0.6,1.5,0.6c1.5,0,1.8-0.5,1.8-1.4v-0.3c-0.9,0.6-1.3,0.8-2.3,0.8c-1.6,0-2.3-0.6-2.3-2.7
		c0-2.2,0.7-2.7,2.3-2.7c1,0,1.4,0.2,2.3,0.8V9.6h1.1v5c0,1.7-1.1,2.3-2.6,2.3c-1.7,0-2.9-0.1-3-1.6L167.3,15.2L167.3,15.2z
		 M170.7,11.4c-1.1-0.8-1.5-1-2.3-1c-1,0-1.3,0.5-1.3,1.8s0.3,1.8,1.3,1.8c0.8,0,1.1-0.2,2.3-1V11.4z"/>
	<path d="M173.5,14.7v-1h2.1v-3.1h-2.1v-1h3.2v4.1h2v1C178.7,14.7,173.5,14.7,173.5,14.7z M175,6.7h1.8v1.8H175V6.7z"/>
	<path d="M181.7,8l1.1-0.4v1.9h3.2v1h-3.2v1.9c0,0.3-0.1,1.2,0.5,1.2c0.5,0,1.3-0.2,2.6-1.1l0.6,0.8c-1.2,1-2.4,1.4-3.1,1.4
		c-0.9,0-1.6-0.5-1.6-1.6v-2.5h-1.5v-1h1.5V8H181.7z"/>
	<path d="M192.3,14.7v-0.8l-0.6,0.3c-1,0.5-1.7,0.5-2.4,0.5c-1.2,0-1.8-0.5-1.8-1.5s0.6-1.5,2.3-1.6l2.5-0.2c0-0.6-0.1-0.9-1.8-0.9
		c-1.5,0-1.8,0.1-1.8,0.9h-1.1c0-1.3,0.9-1.9,2.9-1.9c2.3,0,2.9,0.5,2.9,1.7v3.5H192.3z M190.1,12.5c-1.2,0.1-1.5,0.3-1.5,0.7
		s0.2,0.6,1,0.6c0.7,0,1.5-0.1,2.8-0.9v-0.6L190.1,12.5z"/>
	<path d="M200.3,14.7H195v-1h2.1v-5H195v-1h3.2v6.1h2.1V14.7z"/>
	<path d="M214.9,14.7h-1.2v-2.8h-3.3v2.8h-1.2V7.6h1.2v3.1h3.3V7.6h1.2V14.7z"/>
	<path d="M216.7,14.7v-1h2.1v-3.1h-2.1v-1h3.2v4.1h2v1C221.9,14.7,216.7,14.7,216.7,14.7z M218.2,6.7h1.8v1.8h-1.8V6.7z"/>
	<path d="M228.3,11.3c0-0.9-0.5-0.9-1.8-0.9s-1.8,0-1.8,0.6s0.7,0.6,1.8,0.6c1.9,0,2.9,0.3,2.9,1.5s-0.7,1.7-2.9,1.7
		c-2,0-2.9-0.5-2.9-1.9h1.1c0,0.9,0.3,0.9,1.8,0.9s1.9-0.1,1.9-0.7l0,0c0-0.5-0.6-0.6-1.9-0.6c-2.1,0-2.9-0.4-2.9-1.6
		s0.6-1.6,2.9-1.6c2,0,2.9,0.6,2.9,1.9h-1.1V11.3z"/>
	<path d="M232.1,8l1.1-0.4v1.9h3.2v1h-3.2v1.9c0,0.3-0.1,1.2,0.5,1.2c0.5,0,1.3-0.2,2.6-1.1l0.6,0.8c-1.2,1-2.4,1.4-3.1,1.4
		c-0.9,0-1.6-0.5-1.6-1.6v-2.5h-1.5v-1h1.5V8H232.1z"/>
	<path d="M238,12.1c0-2,0.6-2.7,2.9-2.7s2.9,0.7,2.9,2.7s-0.6,2.7-2.9,2.7S238,14.1,238,12.1z M242.7,12.1c0-1.3-0.2-1.7-1.8-1.7
		s-1.8,0.4-1.8,1.7s0.2,1.7,1.8,1.7C242.5,13.9,242.7,13.5,242.7,12.1z"/>
	<path d="M249.7,11.4c0-0.7-0.2-1-0.9-1s-1.1,0.2-1.9,1.1l-0.5,0.6v2.5h-1.1v-5h1.1v1.3c0.9-1.1,1.5-1.4,2.6-1.4
		c1.2,0,1.8,0.5,1.8,1.5v0.5h-1.1V11.4z"/>
	<path d="M256.5,14.7c-0.5,1.3-1.5,1.9-2.3,1.9s-1.7-0.6-2-1.3l0.9-0.4c0.2,0.3,0.4,0.7,1,0.7c0.5,0,0.9-0.3,1.2-0.9h-0.8l-1.9-5.1
		h1.1l1.5,4.1h0.3l1.5-4.1h1.1L256.5,14.7z"/>
	<path d="M271,14.7l-3.1-5.4v5.4h-1.2V7.6h1.5l3.2,5.6V7.6h1.2v7.1H271z"/>
	<path d="M275.2,12.6c0.1,1,0.4,1.2,1.8,1.2c1.1,0,1.6-0.2,1.7-0.7h1.1c-0.2,1.3-0.9,1.8-2.8,1.8c-2.4,0-2.9-0.7-2.9-2.7
		s0.6-2.7,2.9-2.7c2.1,0,2.8,0.6,2.9,2.2v1h-4.7V12.6z M278.9,11.6c-0.1-0.9-0.4-1.2-1.8-1.2s-1.7,0.3-1.8,1.2H278.9z"/>
	<path d="M282.8,8l1.1-0.4v1.9h3.2v1h-3.2v1.9c0,0.3-0.1,1.2,0.5,1.2c0.5,0,1.3-0.2,2.6-1.1l0.6,0.8c-1.2,1-2.4,1.4-3.1,1.4
		c-0.9,0-1.6-0.5-1.6-1.6v-2.5h-1.5v-1h1.5V8H282.8z"/>
	<path d="M293.8,9.6h1.1l-1.4,5.2h-1.1l-0.9-2.5l-0.9,2.5h-1.1l-1.4-5.2h1.1l1,3.6l0.8-2.4h0.9l0.8,2.4L293.8,9.6z"/>
	<path d="M295.9,12.1c0-2,0.6-2.7,2.9-2.7s2.9,0.7,2.9,2.7s-0.6,2.7-2.9,2.7S295.9,14.1,295.9,12.1z M300.6,12.1
		c0-1.3-0.2-1.7-1.8-1.7c-1.6,0-1.8,0.4-1.8,1.7s0.2,1.7,1.8,1.7C300.4,13.9,300.6,13.5,300.6,12.1z"/>
	<path d="M307.6,11.4c0-0.7-0.2-1-0.9-1c-0.7,0-1.1,0.2-1.9,1.1l-0.5,0.6v2.5h-1.1v-5h1.1v1.3c0.9-1.1,1.5-1.4,2.6-1.4
		c1.2,0,1.8,0.5,1.8,1.5v0.5h-1.1V11.4z"/>
	<path d="M314.3,14.7l-1.4-2.1h-1.5v2.1h-1.1V7.6h1.1v3.9h1.6l1.5-2h1.3l-1.9,2.5l1.8,2.6L314.3,14.7L314.3,14.7z"/>
	<path d="M329.1,9.7c0-0.9-0.6-1.1-2-1.1c-1.7,0-1.9,0.3-1.9,1c0,0.8,0.4,0.9,2.1,0.9c2.3,0.1,3,0.6,3,2.1c0,1.6-0.8,2.2-3.1,2.2
		c-2.1,0-3.1-0.6-3.1-2.1h1.2c0,0.8,0.7,1,1.9,1c1.5,0,1.9-0.2,1.9-1.1c0-0.7-0.4-0.9-2-0.9c-1.9-0.1-3.1-0.5-3.1-2.1
		c0-1.3,0.7-2.2,3.1-2.2c2.3,0,3.2,0.7,3.2,2.2h-1.2V9.7z"/>
	<path d="M336.6,9.6h1.1l-1.4,5.2h-1.1l-0.9-2.5l-0.9,2.5h-1.1l-1.4-5.2h1.1l1,3.6l0.8-2.4h0.9l0.8,2.4L336.6,9.6z"/>
	<path d="M339,14.7v-1h2.1v-3.1H339v-1h3.2v4.1h2v1C344.2,14.7,339,14.7,339,14.7z M340.5,6.7h1.8v1.8h-1.8V6.7z"/>
	<path d="M347.2,8l1.1-0.4v1.9h3.2v1h-3.2v1.9c0,0.3-0.1,1.2,0.5,1.2c0.5,0,1.3-0.2,2.6-1.1l0.6,0.8c-1.2,1-2.4,1.4-3.1,1.4
		c-0.9,0-1.6-0.5-1.6-1.6v-2.5h-1.5v-1h1.5V8H347.2z"/>
	<path d="M358.7,13.6v1.1h-5.5v-1.1l3.9-3h-3.9v-1h5.6v1.1l-3.9,3h3.8V13.6z"/>
	<path d="M361.6,12.6c0.1,1,0.4,1.2,1.8,1.2c1.1,0,1.6-0.2,1.7-0.7h1.1c-0.2,1.3-0.9,1.8-2.8,1.8c-2.4,0-2.9-0.7-2.9-2.7
		s0.6-2.7,2.9-2.7c2.1,0,2.8,0.6,2.9,2.2v1h-4.7V12.6z M365.2,11.6c-0.1-0.9-0.4-1.2-1.8-1.2s-1.7,0.3-1.8,1.2H365.2z"/>
	<path d="M372.4,11.4c0-0.7-0.2-1-0.9-1c-0.7,0-1.1,0.2-1.9,1.1l-0.5,0.6v2.5H368v-5h1.1v1.3c0.9-1.1,1.5-1.4,2.6-1.4
		c1.2,0,1.8,0.5,1.8,1.5v0.5h-1.1V11.4z"/>
	<path d="M380.6,14.7h-5.3v-1h2.1v-5h-2.1v-1h3.2v6.1h2.1L380.6,14.7L380.6,14.7z"/>
	<path d="M387,14.7v-0.8l-0.6,0.3c-1,0.5-1.7,0.5-2.4,0.5c-1.2,0-1.8-0.5-1.8-1.5s0.6-1.5,2.3-1.6l2.5-0.2c0-0.6-0.1-0.9-1.8-0.9
		c-1.5,0-1.8,0.1-1.8,0.9h-1.1c0-1.3,0.9-1.9,2.9-1.9c2.3,0,2.9,0.5,2.9,1.7v3.5H387z M384.8,12.5c-1.2,0.1-1.5,0.3-1.5,0.7
		s0.2,0.6,1,0.6c0.7,0,1.5-0.1,2.8-0.9v-0.6L384.8,12.5z"/>
	<path d="M394,11.5c0-0.7-0.2-1-0.9-1c-0.7,0-1.1,0.2-1.9,1.1l-0.5,0.6v2.5h-1.1V9.6h1.1v1.3c0.9-1.1,1.5-1.4,2.6-1.4
		c1.2,0,1.8,0.5,1.8,1.5v3.8H394V11.5z"/>
	<path d="M402.4,7.5v7.2h-1.1v-0.6c-0.9,0.6-1.3,0.8-2.3,0.8c-1.6,0-2.3-0.6-2.3-2.7c0-2.2,0.7-2.7,2.3-2.7c1,0,1.4,0.2,2.3,0.8V7.5
		H402.4z M401.3,11.4c-1.2-0.8-1.5-1-2.3-1c-1,0-1.3,0.5-1.3,1.8S398,14,399,14c0.8,0,1.1-0.2,2.3-1V11.4z"/>
	<path d="M152.7,26.5v2.6h-1.2V22h3.3c1.6,0,2.5,0.6,2.5,2.2c0,1.3-0.7,2-1.8,2.2l2,2.7H156l-2-2.6C154,26.5,152.7,26.5,152.7,26.5z
		 M154.7,25.4c0.9,0,1.3-0.3,1.3-1.1s-0.6-1.1-1.4-1.1h-2v2.2H154.7z"/>
	<path d="M160,27c0.1,1,0.4,1.2,1.8,1.2c1.1,0,1.6-0.2,1.7-0.7h1.1c-0.2,1.3-0.9,1.8-2.8,1.8c-2.4,0-2.9-0.7-2.9-2.7
		s0.6-2.7,2.9-2.7c2.1,0,2.8,0.6,2.9,2.2v1L160,27L160,27z M163.6,26c-0.1-0.9-0.4-1.2-1.8-1.2c-1.4,0-1.7,0.3-1.8,1.2H163.6z
		 M160.3,23.3l-0.3-0.7l3.1-1.5l0.5,1.2L160.3,23.3z"/>
	<path d="M171,25.7c0-0.9-0.5-0.9-1.8-0.9s-1.8,0-1.8,0.6s0.7,0.6,1.8,0.6c1.9,0,2.9,0.3,2.9,1.5s-0.7,1.7-2.9,1.7
		c-2,0-2.9-0.5-2.9-1.9h1.1c0,0.9,0.3,0.9,1.8,0.9s1.9-0.1,1.9-0.7l0,0c0-0.5-0.6-0.6-1.9-0.6c-2.1,0-2.9-0.4-2.9-1.6
		s0.6-1.6,2.9-1.6c2,0,2.9,0.6,2.9,1.9H171V25.7z"/>
	<path d="M174.8,27c0.1,1,0.4,1.2,1.8,1.2c1.1,0,1.6-0.2,1.7-0.7h1.1c-0.2,1.3-0.9,1.8-2.8,1.8c-2.4,0-2.9-0.7-2.9-2.7
		s0.6-2.7,2.9-2.7c2.1,0,2.8,0.6,2.9,2.2v1L174.8,27L174.8,27z M178.4,26c-0.1-0.9-0.4-1.2-1.8-1.2c-1.4,0-1.7,0.3-1.8,1.2H178.4z"
		/>
	<path d="M185.8,29.1v-0.8l-0.6,0.3c-1,0.5-1.7,0.5-2.4,0.5c-1.2,0-1.8-0.5-1.8-1.5s0.6-1.5,2.3-1.6l2.5-0.2c0-0.6-0.1-0.9-1.8-0.9
		c-1.5,0-1.8,0.1-1.8,0.9h-1.1c0-1.3,0.9-1.9,2.9-1.9c2.3,0,2.9,0.5,2.9,1.7v3.5H185.8z M183.5,26.9c-1.2,0.1-1.5,0.3-1.5,0.7
		c0,0.4,0.2,0.6,1,0.6c0.7,0,1.5-0.1,2.8-0.9v-0.6L183.5,26.9z"/>
	<path d="M189.5,27.2c0,0.7,0.2,1,0.9,1s1.1-0.2,1.9-1.1l0.5-0.6V24h1.1v5.2h-1.1v-1.3c-0.9,1.1-1.5,1.4-2.6,1.4
		c-1.2,0-1.8-0.5-1.8-1.5V24h1.1L189.5,27.2z"/>
	<path d="M207.4,25.7c0-0.9-0.5-0.9-1.8-0.9s-1.8,0-1.8,0.6s0.7,0.6,1.8,0.6c1.9,0,2.9,0.3,2.9,1.5s-0.7,1.7-2.9,1.7
		c-2,0-2.9-0.5-2.9-1.9h1.1c0,0.9,0.3,0.9,1.8,0.9s1.9-0.1,1.9-0.7l0,0c0-0.5-0.6-0.6-1.9-0.6c-2.1,0-2.9-0.4-2.9-1.6
		s0.6-1.6,2.9-1.6c2,0,2.9,0.6,2.9,1.9h-1.1V25.7z"/>
	<path d="M211.1,27.2c0,0.7,0.2,1,0.9,1s1.1-0.2,1.9-1.1l0.5-0.6V24h1.1v5.2h-1.1v-1.3c-0.9,1.1-1.5,1.4-2.6,1.4
		c-1.2,0-1.8-0.5-1.8-1.5V24h1.1L211.1,27.2z"/>
	<path d="M217.3,29.1v-1h2.1V25h-2.1v-1h3.2v4.1h2v1H217.3z M218.8,21.1h1.8v1.8h-1.8V21.1z"/>
	<path d="M229,25.7c0-0.9-0.5-0.9-1.8-0.9s-1.8,0-1.8,0.6s0.7,0.6,1.8,0.6c1.9,0,2.9,0.3,2.9,1.5s-0.7,1.7-2.9,1.7
		c-2,0-2.9-0.5-2.9-1.9h1.1c0,0.9,0.3,0.9,1.8,0.9s1.9-0.1,1.9-0.7l0,0c0-0.5-0.6-0.6-1.9-0.6c-2.1,0-2.9-0.4-2.9-1.6
		s0.6-1.6,2.9-1.6c2,0,2.9,0.6,2.9,1.9H229V25.7z"/>
	<path d="M236.2,25.7c0-0.9-0.5-0.9-1.8-0.9s-1.8,0-1.8,0.6s0.7,0.6,1.8,0.6c1.9,0,2.9,0.3,2.9,1.5s-0.7,1.7-2.9,1.7
		c-2,0-2.9-0.5-2.9-1.9h1.1c0,0.9,0.3,0.9,1.8,0.9s1.9-0.1,1.9-0.7l0,0c0-0.5-0.6-0.6-1.9-0.6c-2.1,0-2.9-0.4-2.9-1.6
		s0.6-1.6,2.9-1.6c2,0,2.9,0.6,2.9,1.9h-1.1V25.7z"/>
	<path d="M239.9,27c0.1,1,0.4,1.2,1.8,1.2c1.1,0,1.6-0.2,1.7-0.7h1.1c-0.2,1.3-0.9,1.8-2.8,1.8c-2.4,0-2.9-0.7-2.9-2.7
		s0.6-2.7,2.9-2.7c2.1,0,2.8,0.6,2.9,2.2v1L239.9,27L239.9,27z M243.5,26c-0.1-0.9-0.4-1.2-1.8-1.2c-1.4,0-1.7,0.3-1.8,1.2H243.5z"
		/>
	<path d="M259.1,21.9v7.2H258v-0.6c-0.9,0.6-1.3,0.8-2.3,0.8c-1.6,0-2.3-0.6-2.3-2.7c0-2.2,0.7-2.7,2.3-2.7c1,0,1.4,0.2,2.3,0.8V22
		L259.1,21.9L259.1,21.9z M258,25.8c-1.2-0.8-1.5-1-2.3-1c-1,0-1.3,0.5-1.3,1.8s0.3,1.8,1.3,1.8c0.8,0,1.1-0.2,2.3-1V25.8z"/>
	<path d="M263.3,25.7l-0.8-0.3l0.6-1.9h-0.7v-1.7h2.1v1.6L263.3,25.7z"/>
	<path d="M272.3,25.9c0-0.7-0.2-1-0.9-1c-0.7,0-1.1,0.2-1.9,1.1l-0.5,0.6v2.5h-1.1V22h1.1v3.2c0.9-1.1,1.5-1.4,2.6-1.4
		c1.2,0,1.8,0.5,1.8,1.5v3.8h-1.1V25.9z"/>
	<path d="M275.3,29.1v-1h2.1V25h-2.1v-1h3.2v4.1h2v1H275.3z M276.7,21.1h1.8v1.8h-1.8V21.1z"/>
	<path d="M286.9,25.7c0-0.9-0.5-0.9-1.8-0.9s-1.8,0-1.8,0.6s0.7,0.6,1.8,0.6c1.9,0,2.9,0.3,2.9,1.5s-0.7,1.7-2.9,1.7
		c-2,0-2.9-0.5-2.9-1.9h1.1c0,0.9,0.3,0.9,1.8,0.9s1.9-0.1,1.9-0.7l0,0c0-0.5-0.6-0.6-1.9-0.6c-2.1,0-2.9-0.4-2.9-1.6
		s0.6-1.6,2.9-1.6c2,0,2.9,0.6,2.9,1.9h-1.1V25.7z"/>
	<path d="M290.6,22.4l1.1-0.4v2h3.2v1h-3.2v1.9c0,0.3-0.1,1.2,0.5,1.2c0.5,0,1.3-0.2,2.6-1.1l0.6,0.8c-1.2,1-2.4,1.4-3.1,1.4
		c-0.9,0-1.6-0.5-1.6-1.6V25h-1.5v-1h1.5v-1.6H290.6z"/>
	<path d="M296.5,26.5c0-2,0.6-2.7,2.9-2.7s2.9,0.7,2.9,2.7s-0.6,2.7-2.9,2.7S296.5,28.5,296.5,26.5z M301.3,26.5
		c0-1.3-0.2-1.7-1.8-1.7c-1.6,0-1.8,0.4-1.8,1.7c0,1.3,0.2,1.7,1.8,1.7C301.1,28.3,301.3,27.9,301.3,26.5z"/>
	<path d="M304.1,29.1v-1h2.1V25h-2.1v-1h3.2v4.1h2v1H304.1z M305.5,21.1h1.8v1.8h-1.8V21.1z"/>
	<path d="M315.5,25.8c0-0.7-0.2-1-0.9-1c-0.7,0-1.1,0.2-1.9,1.1l-0.5,0.6V29h-1.1v-5h1.1v1.3c0.9-1.1,1.5-1.4,2.6-1.4
		c1.2,0,1.8,0.5,1.8,1.5v0.5h-1.1V25.8z"/>
	<path d="M319.4,27c0.1,1,0.4,1.2,1.8,1.2c1.1,0,1.6-0.2,1.7-0.7h1.1c-0.2,1.3-0.9,1.8-2.8,1.8c-2.4,0-2.9-0.7-2.9-2.7
		s0.6-2.7,2.9-2.7c2.1,0,2.8,0.6,2.9,2.2v1L319.4,27L319.4,27z M323,26c-0.1-0.9-0.4-1.2-1.8-1.2s-1.7,0.3-1.8,1.2H323z"/>
	<path d="M337.4,25.9c0-0.7-0.2-1-0.9-1c-0.7,0-1.1,0.2-1.9,1.1l-0.5,0.6v2.5H333V24h1.1v1.3c0.9-1.1,1.5-1.4,2.6-1.4
		c1.2,0,1.8,0.5,1.8,1.5v3.8h-1.1V25.9z"/>
	<path d="M341.4,27.2c0,0.7,0.2,1,0.9,1c0.7,0,1.1-0.2,1.9-1.1l0.5-0.6V24h1.1v5.2h-1.1v-1.3c-0.9,1.1-1.5,1.4-2.6,1.4
		c-1.2,0-1.8-0.5-1.8-1.5V24h1.1V27.2z"/>
	<path d="M348.3,24.6c0.7-0.7,1.1-0.8,1.6-0.8s0.8,0.3,0.8,0.8c0.8-0.7,1.1-0.8,1.6-0.8s0.8,0.2,0.8,0.7v4.6H352v-3.9
		c0-0.2-0.1-0.4-0.3-0.4c-0.2,0-0.6,0.3-1.1,0.8v3.5h-1v-3.9c0-0.2-0.1-0.4-0.3-0.4c-0.2,0-0.6,0.3-1.1,0.8v3.5h-1.1V24h1.1
		L348.3,24.6L348.3,24.6z"/>
	<path d="M355.7,27c0.1,1,0.4,1.2,1.8,1.2c1.1,0,1.6-0.2,1.7-0.7h1.1c-0.2,1.3-0.9,1.8-2.8,1.8c-2.4,0-2.9-0.7-2.9-2.7
		s0.6-2.7,2.9-2.7c2.1,0,2.8,0.6,2.9,2.2v1L355.7,27L355.7,27z M359.4,26c-0.1-0.9-0.4-1.2-1.8-1.2s-1.7,0.3-1.8,1.2H359.4z
		 M356,23.3l-0.3-0.7l3.1-1.5l0.5,1.2L356,23.3z"/>
	<path d="M366.5,25.8c0-0.7-0.2-1-0.9-1c-0.7,0-1.1,0.2-1.9,1.1l-0.5,0.6V29h-1.1v-5h1.1v1.3c0.9-1.1,1.5-1.4,2.6-1.4
		c1.2,0,1.8,0.5,1.8,1.5v0.5h-1.1V25.8z"/>
	<path d="M369.5,29.1v-1h2.1V25h-2.1v-1h3.2v4.1h2v1H369.5z M371,21.1h1.8v1.8H371V21.1z"/>
	<path d="M381.1,28.5c-0.9,0.6-1.3,0.8-2.3,0.8c-1.6,0-2.3-0.6-2.3-2.7c0-2.2,0.7-2.7,2.3-2.7c1,0,1.4,0.2,2.3,0.8V24h1.1v7.2h-1.1
		V28.5z M381.1,25.8c-1.2-0.8-1.5-1-2.3-1c-1,0-1.3,0.5-1.3,1.8s0.3,1.8,1.3,1.8c0.8,0,1.1-0.2,2.3-1V25.8z"/>
	<path d="M384.9,27.2c0,0.7,0.2,1,0.9,1c0.7,0,1.1-0.2,1.9-1.1l0.5-0.6V24h1.1v5.2h-1.1v-1.3c-0.9,1.1-1.5,1.4-2.6,1.4
		c-1.2,0-1.8-0.5-1.8-1.5V24h1.1V27.2z"/>
	<path d="M392.1,27c0.1,1,0.4,1.2,1.8,1.2c1.1,0,1.6-0.2,1.7-0.7h1.1c-0.2,1.3-0.9,1.8-2.8,1.8c-2.4,0-2.9-0.7-2.9-2.7
		s0.6-2.7,2.9-2.7c2.1,0,2.8,0.6,2.9,2.2v1L392.1,27L392.1,27z M395.7,26c-0.1-0.9-0.4-1.2-1.8-1.2s-1.7,0.3-1.8,1.2H395.7z"/>
	<path d="M155.8,43.5l-3.1-5.4v5.4h-1.2v-7.1h1.5l3.2,5.6v-5.6h1.2v7.1H155.8z"/>
	<path d="M160,41.4c0.1,1,0.4,1.2,1.8,1.2c1.1,0,1.6-0.2,1.7-0.7h1.1c-0.2,1.3-0.9,1.8-2.8,1.8c-2.4,0-2.9-0.7-2.9-2.7
		s0.6-2.7,2.9-2.7c2.1,0,2.8,0.6,2.9,2.2v1L160,41.4L160,41.4z M163.6,40.4c-0.1-0.9-0.4-1.2-1.8-1.2c-1.4,0-1.7,0.3-1.8,1.2H163.6z
		"/>
	<path d="M167.6,36.8l1.1-0.4v1.9h3.2v1h-3.2v1.9c0,0.3-0.1,1.2,0.5,1.2c0.5,0,1.3-0.2,2.6-1.1l0.6,0.8c-1.2,1-2.4,1.4-3.1,1.4
		c-0.9,0-1.6-0.5-1.6-1.6v-2.5h-1.5v-1h1.5v-1.6H167.6z"/>
	<path d="M179.1,42.4v1.1h-5.5v-1.1l3.9-3h-3.9v-1.1h5.6v1.1l-3.9,3H179.1z"/>
	<path d="M185.8,38.4h1.1l-1.4,5.2h-1.1l-0.9-2.5l-0.9,2.5h-1.1l-1.4-5.2h1.1l1,3.6l0.8-2.4h0.9l0.8,2.4L185.8,38.4z"/>
	<path d="M189.2,41.4c0.1,1,0.4,1.2,1.8,1.2c1.1,0,1.6-0.2,1.7-0.7h1.1c-0.2,1.3-0.9,1.8-2.8,1.8c-2.4,0-2.9-0.7-2.9-2.7
		s0.6-2.7,2.9-2.7c2.1,0,2.8,0.6,2.9,2.2v1L189.2,41.4L189.2,41.4z M192.8,40.4c-0.1-0.9-0.4-1.2-1.8-1.2c-1.4,0-1.7,0.3-1.8,1.2
		H192.8z"/>
	<path d="M200,40.2c0-0.7-0.2-1-0.9-1s-1.1,0.2-1.9,1.1l-0.5,0.6v2.5h-1.1v-5.2h1.1v1.3c0.9-1.1,1.5-1.4,2.6-1.4
		c1.2,0,1.8,0.5,1.8,1.5v0.5H200V40.2z"/>
	<path d="M206.6,43.5l-1.4-2.1h-1.5v2.1h-1.1v-7.1h1.1v3.9h1.6l1.5-2h1.3l-1.9,2.5l1.8,2.6L206.6,43.5L206.6,43.5z"/>
	<path d="M219.5,36.4c2.2,0,3.1,1.2,3.1,3.3c0,2.9-0.9,3.8-3.1,3.8h-2.9v-7.1H219.5z M219.5,42.4c1.3,0,1.8-0.6,1.8-2.6
		c0-1.5-0.5-2.3-1.8-2.3h-1.8v4.9C217.7,42.4,219.5,42.4,219.5,42.4z"/>
	<path d="M224.1,43.5v-1h2.1v-3.1h-2.1v-1h3.2v4.1h2v1H224.1z M225.6,35.5h1.8v1.8h-1.8V35.5z"/>
	<path d="M232.4,44c0.1,0.4,0.6,0.6,1.5,0.6c1.5,0,1.8-0.5,1.8-1.4v-0.3c-0.9,0.6-1.3,0.8-2.3,0.8c-1.6,0-2.3-0.6-2.3-2.7
		c0-2.2,0.7-2.7,2.3-2.7c1,0,1.4,0.2,2.3,0.8v-0.6h1.1v5c0,1.7-1.1,2.3-2.6,2.3c-1.7,0-2.9-0.1-3-1.6h1.2V44z M235.7,40.2
		c-1.1-0.8-1.5-1-2.3-1c-1,0-1.3,0.5-1.3,1.8s0.3,1.8,1.3,1.8c0.8,0,1.1-0.2,2.3-1V40.2z"/>
	<path d="M238.5,43.5v-1h2.1v-3.1h-2.1v-1h3.2v4.1h2v1H238.5z M240,35.5h1.8v1.8H240V35.5z"/>
	<path d="M246.7,36.8l1.1-0.4v1.9h3.2v1h-3.2v1.9c0,0.3-0.1,1.2,0.5,1.2c0.5,0,1.3-0.2,2.6-1.1l0.6,0.8c-1.2,1-2.4,1.4-3.1,1.4
		c-0.9,0-1.6-0.5-1.6-1.6v-2.5h-1.5v-1h1.5v-1.6H246.7z"/>
	<path d="M257.4,43.5v-0.8l-0.6,0.3c-1,0.5-1.7,0.5-2.4,0.5c-1.2,0-1.8-0.5-1.8-1.5s0.6-1.5,2.3-1.6l2.5-0.2c0-0.6-0.1-0.9-1.8-0.9
		c-1.5,0-1.8,0.1-1.8,0.9h-1.1c0-1.3,0.9-1.9,2.9-1.9c2.3,0,2.9,0.5,2.9,1.7v3.5H257.4z M255.2,41.3c-1.2,0.1-1.5,0.3-1.5,0.7
		s0.2,0.6,1,0.6c0.7,0,1.5-0.1,2.8-0.9v-0.6L255.2,41.3z"/>
	<path d="M265.4,43.5h-5.3v-1h2.1v-5h-2.1v-1h3.2v6.1h2.1L265.4,43.5L265.4,43.5z"/>
	<path d="M268.3,41.4c0.1,1,0.4,1.2,1.8,1.2c1.1,0,1.6-0.2,1.7-0.7h1.1c-0.2,1.3-0.9,1.8-2.8,1.8c-2.4,0-2.9-0.7-2.9-2.7
		s0.6-2.7,2.9-2.7c2.1,0,2.8,0.6,2.9,2.2v1L268.3,41.4L268.3,41.4z M271.9,40.4c-0.1-0.9-0.4-1.2-1.8-1.2s-1.7,0.3-1.8,1.2H271.9z"
		/>
	<path d="M286.9,43.5l-0.2-1l0,0c-0.4,0.8-1.1,1.2-2,1.2c-2.5,0-3.1-1.1-3.1-3.9c0-2.4,0.7-3.5,3.2-3.5c2.1,0,2.9,0.8,3,2.4h-1.2
		c0-0.7-0.4-1.3-1.8-1.3c-1.9,0-2,0.8-2,2.4c0,2.1,0.2,2.8,2.1,2.8c1.4,0,1.8-0.6,1.8-1.7h-3v-1h4.1v3.6H286.9z"/>
	<path d="M290.2,41.4c0.1,1,0.4,1.2,1.8,1.2c1.1,0,1.6-0.2,1.7-0.7h1.1c-0.2,1.3-0.9,1.8-2.8,1.8c-2.4,0-2.9-0.7-2.9-2.7
		s0.6-2.7,2.9-2.7c2.1,0,2.8,0.6,2.9,2.2v1L290.2,41.4L290.2,41.4z M293.8,40.4c-0.1-0.9-0.4-1.2-1.8-1.2s-1.7,0.3-1.8,1.2H293.8z"
		/>
	<path d="M301.2,40.1c0-0.9-0.5-0.9-1.8-0.9s-1.8,0-1.8,0.6s0.7,0.6,1.8,0.6c1.9,0,2.9,0.3,2.9,1.5s-0.7,1.7-2.9,1.7
		c-2,0-2.9-0.5-2.9-1.9h1.1c0,0.9,0.3,0.9,1.8,0.9s1.9-0.1,1.9-0.7l0,0c0-0.5-0.6-0.6-1.9-0.6c-2.1,0-2.9-0.4-2.9-1.6
		c0-1.2,0.6-1.6,2.9-1.6c2,0,2.9,0.6,2.9,1.9L301.2,40.1L301.2,40.1z"/>
	<path d="M309.5,41.8c-0.2,1.4-0.9,1.9-2.9,1.9c-2.4,0-2.9-0.7-2.9-2.7s0.6-2.7,2.9-2.7c2.2,0,2.8,0.6,2.9,2.3h-1.1
		c-0.1-1-0.4-1.3-1.8-1.3c-1.6,0-1.8,0.4-1.8,1.7s0.2,1.7,1.8,1.7c1.2,0,1.6-0.2,1.8-0.9H309.5z"/>
	<path d="M315.4,40.3c0-0.7-0.2-1-0.9-1c-0.7,0-1.1,0.2-1.9,1.1l-0.5,0.6v2.5H311v-7.1h1.1v3.2c0.9-1.1,1.5-1.4,2.6-1.4
		c1.2,0,1.8,0.5,1.8,1.5v3.8h-1.1V40.3z"/>
	<path d="M318.4,43.5v-1h2.1v-3.1h-2.1v-1h3.2v4.1h2v1H318.4z M319.9,35.5h1.8v1.8h-1.8V35.5z"/>
	<path d="M331.1,41.8c-0.2,1.4-0.9,1.9-2.9,1.9c-2.4,0-2.9-0.7-2.9-2.7s0.6-2.7,2.9-2.7c2.2,0,2.8,0.6,2.9,2.3H330
		c-0.1-1-0.4-1.3-1.8-1.3c-1.6,0-1.8,0.4-1.8,1.7s0.2,1.7,1.8,1.7c1.2,0,1.6-0.2,1.8-0.9H331.1z"/>
	<path d="M337,40.3c0-0.7-0.2-1-0.9-1c-0.7,0-1.1,0.2-1.9,1.1l-0.5,0.6v2.5h-1.1v-7.1h1.1v3.2c0.9-1.1,1.5-1.4,2.6-1.4
		c1.2,0,1.8,0.5,1.8,1.5v3.8H337V40.3z"/>
	<path d="M341,36.8l1.1-0.4v1.9h3.2v1H342v1.9c0,0.3-0.1,1.2,0.5,1.2c0.5,0,1.3-0.2,2.6-1.1l0.6,0.8c-1.2,1-2.4,1.4-3.1,1.4
		c-0.9,0-1.6-0.5-1.6-1.6v-2.5h-1.5v-1h1.5V36.8z"/>
	<path d="M348.1,41.4c0.1,1,0.4,1.2,1.8,1.2c1.1,0,1.6-0.2,1.7-0.7h1.1c-0.2,1.3-0.9,1.8-2.8,1.8c-2.4,0-2.9-0.7-2.9-2.7
		s0.6-2.7,2.9-2.7c2.1,0,2.8,0.6,2.9,2.2v1L348.1,41.4L348.1,41.4z M351.8,40.4c-0.1-0.9-0.4-1.2-1.8-1.2s-1.7,0.3-1.8,1.2H351.8z"
		/>
	<path d="M366.4,38.5c0-0.9-0.6-1.1-2-1.1c-1.7,0-1.9,0.3-1.9,1c0,0.8,0.4,0.9,2.1,0.9c2.3,0.1,3,0.6,3,2.1c0,1.6-0.8,2.2-3.1,2.2
		c-2.1,0-3.1-0.6-3.1-2.1h1.2c0,0.8,0.7,1,1.9,1c1.5,0,1.9-0.2,1.9-1.1c0-0.7-0.4-0.9-2-0.9c-1.9-0.1-3.1-0.5-3.1-2.1
		c0-1.3,0.7-2.2,3.1-2.2c2.3,0,3.2,0.7,3.2,2.2L366.4,38.5L366.4,38.5z"/>
	<path d="M374.6,41.8c-0.2,1.4-0.9,1.9-2.9,1.9c-2.4,0-2.9-0.7-2.9-2.7s0.6-2.7,2.9-2.7c2.2,0,2.8,0.6,2.9,2.3h-1.1
		c-0.1-1-0.4-1.3-1.8-1.3c-1.6,0-1.8,0.4-1.8,1.7s0.2,1.7,1.8,1.7c1.2,0,1.6-0.2,1.8-0.9H374.6z"/>
	<path d="M380.5,40.3c0-0.7-0.2-1-0.9-1c-0.7,0-1.1,0.2-1.9,1.1l-0.5,0.6v2.5h-1.1v-7.1h1.1v3.2c0.9-1.1,1.5-1.4,2.6-1.4
		c1.2,0,1.8,0.5,1.8,1.5v3.8h-1.1V40.3z"/>
	<path d="M388.3,38.4h1.1l-1.4,5.2h-1l-0.9-2.5l-0.9,2.5h-1.1l-1.4-5.2h1.1l1,3.6l0.8-2.4h0.9l0.8,2.4L388.3,38.4z"/>
	<path d="M391.7,41.4c0.1,1,0.4,1.2,1.8,1.2c1.1,0,1.6-0.2,1.7-0.7h1.1c-0.2,1.3-0.9,1.8-2.8,1.8c-2.4,0-2.9-0.7-2.9-2.7
		s0.6-2.7,2.9-2.7c2.1,0,2.8,0.6,2.9,2.2v1L391.7,41.4L391.7,41.4z M395.3,40.4c-0.1-0.9-0.4-1.2-1.8-1.2s-1.7,0.3-1.8,1.2H395.3z"
		/>
	<path d="M398.2,43.5v-1h2.1v-3.1h-2.1v-1h3.2v4.1h2v1H398.2z M399.7,35.5h1.8v1.8h-1.8V35.5z"/>
	<path d="M410.7,42.4v1.1h-5.5v-1.1l3.9-3h-3.9v-1.1h5.6v1.1l-3.9,3H410.7z"/>
	<path d="M152.7,55.3v2.6h-1.2v-7.1h3.3c1.6,0,2.5,0.6,2.5,2.2c0,1.3-0.7,2-1.8,2.2l2,2.7H156l-2-2.6
		C154,55.3,152.7,55.3,152.7,55.3z M154.7,54.2c0.9,0,1.3-0.3,1.3-1.1s-0.6-1.1-1.4-1.1h-2v2.2C152.6,54.2,154.7,54.2,154.7,54.2z"
		/>
	<path d="M160,55.8c0.1,1,0.4,1.2,1.8,1.2c1.1,0,1.6-0.2,1.7-0.7h1.1c-0.2,1.3-0.9,1.8-2.8,1.8c-2.4,0-2.9-0.7-2.9-2.7
		s0.6-2.7,2.9-2.7c2.1,0,2.8,0.6,2.9,2.2v1L160,55.8L160,55.8z M163.6,54.8c-0.1-0.9-0.4-1.2-1.8-1.2c-1.4,0-1.7,0.3-1.8,1.2H163.6z
		"/>
	<path d="M167.6,51.2l1.1-0.4v1.9h3.2v1h-3.2v1.9c0,0.3-0.1,1.2,0.5,1.2c0.5,0,1.3-0.2,2.6-1.1l0.6,0.8c-1.2,1-2.4,1.4-3.1,1.4
		c-0.9,0-1.6-0.5-1.6-1.6v-2.5h-1.5v-1h1.5v-1.6H167.6z"/>
	<path d="M174.8,55.8c0.1,1,0.4,1.2,1.8,1.2c1.1,0,1.6-0.2,1.7-0.7h1.1c-0.2,1.3-0.9,1.8-2.8,1.8c-2.4,0-2.9-0.7-2.9-2.7
		s0.6-2.7,2.9-2.7c2.1,0,2.8,0.6,2.9,2.2v1L174.8,55.8L174.8,55.8z M178.4,54.8c-0.1-0.9-0.4-1.2-1.8-1.2c-1.4,0-1.7,0.3-1.8,1.2
		H178.4z"/>
	<path d="M193,54.5c0-0.9-0.5-0.9-1.8-0.9s-1.8,0-1.8,0.6s0.7,0.6,1.8,0.6c1.9,0,2.9,0.3,2.9,1.5s-0.7,1.7-2.9,1.7
		c-2,0-2.9-0.5-2.9-1.9h1.1c0,0.9,0.3,0.9,1.8,0.9s1.9-0.1,1.9-0.7l0,0c0-0.5-0.6-0.6-1.9-0.6c-2.1,0-2.9-0.4-2.9-1.6
		c0-1.2,0.6-1.6,2.9-1.6c2,0,2.9,0.6,2.9,1.9L193,54.5L193,54.5z"/>
	<path d="M197.3,57.9l-2-5.1h1.1l1.6,4.1h0.4l1.6-4.1h1.1l-2,5.1H197.3z"/>
	<path d="M202.9,57.9v-1h2.1v-3.1h-2.1v-1h3.2v4.1h2v1H202.9z M204.4,49.9h1.8v1.8h-1.8V49.9z"/>
	<path d="M215.4,56.8v1.1h-5.5v-1.1l3.9-3h-3.9v-1.1h5.6v1.1l-3.9,3H215.4z"/>
	<path d="M222.6,56.8v1.1h-5.5v-1.1l3.9-3h-3.9v-1.1h5.6v1.1l-3.9,3H222.6z"/>
	<path d="M225.5,55.8c0.1,1,0.4,1.2,1.8,1.2c1.1,0,1.6-0.2,1.7-0.7h1.1c-0.2,1.3-0.9,1.8-2.8,1.8c-2.4,0-2.9-0.7-2.9-2.7
		s0.6-2.7,2.9-2.7c2.1,0,2.8,0.6,2.9,2.2v1L225.5,55.8L225.5,55.8z M229.1,54.8c-0.1-0.9-0.4-1.2-1.8-1.2c-1.4,0-1.7,0.3-1.8,1.2
		H229.1z"/>
	<path d="M236.3,54.6c0-0.7-0.2-1-0.9-1s-1.1,0.2-1.9,1.1l-0.5,0.6v2.5h-1.1v-5.2h1.1V54c0.9-1.1,1.5-1.4,2.6-1.4
		c1.2,0,1.8,0.5,1.8,1.5v0.5H236.3z"/>
	<path d="M243.7,57.9v-0.8l-0.6,0.3c-1,0.5-1.7,0.5-2.4,0.5c-1.2,0-1.8-0.5-1.8-1.5s0.6-1.5,2.3-1.6l2.5-0.2c0-0.6-0.1-0.9-1.8-0.9
		c-1.5,0-1.8,0.1-1.8,0.9H239c0-1.3,0.9-1.9,2.9-1.9c2.3,0,2.9,0.5,2.9,1.7v3.5H243.7z M241.5,55.7c-1.2,0.1-1.5,0.3-1.5,0.7
		s0.2,0.6,1,0.6c0.7,0,1.5-0.1,2.8-0.9v-0.6L241.5,55.7z"/>
	<path d="M259.1,50.7v7.2H258v-0.6c-0.9,0.6-1.3,0.8-2.3,0.8c-1.6,0-2.3-0.6-2.3-2.7c0-2.2,0.7-2.7,2.3-2.7c1,0,1.4,0.2,2.3,0.8
		v-2.7L259.1,50.7L259.1,50.7z M258,54.6c-1.2-0.8-1.5-1-2.3-1c-1,0-1.3,0.5-1.3,1.8s0.3,1.8,1.3,1.8c0.8,0,1.1-0.2,2.3-1V54.6z"/>
	<path d="M260.9,57.9v-1h2.1v-3.1h-2.1v-1h3.2v4.1h2v1H260.9z M262.3,49.9h1.8v1.8h-1.8V49.9z"/>
	<path d="M279.7,54.5c0-0.9-0.5-0.9-1.8-0.9s-1.8,0-1.8,0.6s0.7,0.6,1.8,0.6c1.9,0,2.9,0.3,2.9,1.5s-0.7,1.7-2.9,1.7
		c-2,0-2.9-0.5-2.9-1.9h1.1c0,0.9,0.3,0.9,1.8,0.9s1.9-0.1,1.9-0.7l0,0c0-0.5-0.6-0.6-1.9-0.6c-2.1,0-2.9-0.4-2.9-1.6
		c0-1.2,0.6-1.6,2.9-1.6c2,0,2.9,0.6,2.9,1.9L279.7,54.5L279.7,54.5z"/>
	<path d="M283.4,51.2l1.1-0.4v1.9h3.2v1h-3.2v1.9c0,0.3-0.1,1.2,0.5,1.2c0.5,0,1.3-0.2,2.6-1.1l0.6,0.8c-1.2,1-2.4,1.4-3.1,1.4
		c-0.9,0-1.6-0.5-1.6-1.6v-2.5H282v-1h1.5v-1.6H283.4z"/>
	<path d="M289.3,55.3c0-2,0.6-2.7,2.9-2.7c2.4,0,2.9,0.7,2.9,2.7s-0.6,2.7-2.9,2.7C289.9,58.1,289.3,57.3,289.3,55.3z M294.1,55.3
		c0-1.3-0.2-1.7-1.8-1.7c-1.6,0-1.8,0.4-1.8,1.7s0.2,1.7,1.8,1.7C293.9,57.1,294.1,56.7,294.1,55.3z"/>
	<path d="M301.1,54.6c0-0.7-0.2-1-0.9-1c-0.7,0-1.1,0.2-1.9,1.1l-0.5,0.6v2.5h-1.1v-5.2h1.1V54c0.9-1.1,1.5-1.4,2.6-1.4
		c1.2,0,1.8,0.5,1.8,1.5v0.5H301.1z"/>
	<path d="M304.1,57.9v-1h2.1v-3.1h-2.1v-1h3.2v4.1h2v1H304.1z M305.5,49.9h1.8v1.8h-1.8V49.9z"/>
	<path d="M315.7,57.9v-0.8l-0.6,0.3c-1,0.5-1.7,0.5-2.4,0.5c-1.2,0-1.8-0.5-1.8-1.5s0.6-1.5,2.3-1.6l2.5-0.2c0-0.6-0.1-0.9-1.8-0.9
		c-1.5,0-1.8,0.1-1.8,0.9H311c0-1.3,0.9-1.9,2.9-1.9c2.3,0,2.9,0.5,2.9,1.7v3.5H315.7z M313.5,55.7c-1.2,0.1-1.5,0.3-1.5,0.7
		s0.2,0.6,1,0.6c0.7,0,1.5-0.1,2.8-0.9v-0.6L313.5,55.7z"/>
	<path d="M331.1,50.7v7.2H330v-0.6c-0.9,0.6-1.3,0.8-2.3,0.8c-1.6,0-2.3-0.6-2.3-2.7c0-2.2,0.7-2.7,2.3-2.7c1,0,1.4,0.2,2.3,0.8
		v-2.7L331.1,50.7L331.1,50.7z M330,54.6c-1.2-0.8-1.5-1-2.3-1c-1,0-1.3,0.5-1.3,1.8s0.3,1.8,1.3,1.8c0.8,0,1.1-0.2,2.3-1V54.6z"/>
	<path d="M332.9,57.9v-1h2.1v-3.1h-2.1v-1h3.2v4.1h2v1H332.9z M334.3,49.9h1.8v1.8h-1.8V49.9z"/>
	<path d="M341.1,58.4c0.1,0.4,0.6,0.6,1.5,0.6c1.5,0,1.8-0.5,1.8-1.4v-0.3c-0.9,0.6-1.3,0.8-2.3,0.8c-1.6,0-2.3-0.6-2.3-2.7
		c0-2.2,0.7-2.7,2.3-2.7c1,0,1.4,0.2,2.3,0.8v-0.6h1.1v5c0,1.7-1.1,2.3-2.6,2.3c-1.7,0-2.9-0.1-3-1.6h1.2V58.4z M344.4,54.6
		c-1.1-0.8-1.5-1-2.3-1c-1,0-1.3,0.5-1.3,1.8s0.3,1.8,1.3,1.8c0.8,0,1.1-0.2,2.3-1V54.6z"/>
	<path d="M347.3,57.9v-1h2.1v-3.1h-2.1v-1h3.2v4.1h2v1H347.3z M348.7,49.9h1.8v1.8h-1.8V49.9z"/>
	<path d="M355.4,51.2l1.1-0.4v1.9h3.2v1h-3.2v1.9c0,0.3-0.1,1.2,0.5,1.2c0.5,0,1.3-0.2,2.6-1.1l0.6,0.8c-1.2,1-2.4,1.4-3.1,1.4
		c-0.9,0-1.6-0.5-1.6-1.6v-2.5H354v-1h1.5v-1.6H355.4z"/>
	<path d="M366.1,57.9v-0.8l-0.6,0.3c-1,0.5-1.7,0.5-2.4,0.5c-1.2,0-1.8-0.5-1.8-1.5s0.6-1.5,2.3-1.6l2.5-0.2c0-0.6-0.1-0.9-1.8-0.9
		c-1.5,0-1.8,0.1-1.8,0.9h-1.1c0-1.3,0.9-1.9,2.9-1.9c2.3,0,2.9,0.5,2.9,1.7v3.5H366.1z M363.9,55.7c-1.2,0.1-1.5,0.3-1.5,0.7
		s0.2,0.6,1,0.6c0.7,0,1.5-0.1,2.8-0.9v-0.6L363.9,55.7z"/>
	<path d="M374.1,57.9h-5.3v-1h2.1v-5h-2.1v-1h3.2V57h2.1L374.1,57.9L374.1,57.9z"/>
	<path d="M377,55.8c0.1,1,0.4,1.2,1.8,1.2c1.1,0,1.6-0.2,1.7-0.7h1.1c-0.2,1.3-0.9,1.8-2.8,1.8c-2.4,0-2.9-0.7-2.9-2.7
		s0.6-2.7,2.9-2.7c2.1,0,2.8,0.6,2.9,2.2v1L377,55.8L377,55.8z M380.6,54.8c-0.1-0.9-0.4-1.2-1.8-1.2s-1.7,0.3-1.8,1.2H380.6z"/>
</g>
<g>
	<rect x="13.9" y="7.7" class="st0" width="2.1" height="50.2"/>
	<rect x="11.8" y="7.7" width="2.1" height="50.2"/>
	<rect x="18.2" y="7.7" width="2.1" height="50.2"/>
	<rect x="16" y="7.7" class="st1" width="2.1" height="50.2"/>
	<rect x="22.4" y="7.7" width="2.1" height="50.2"/>
	<rect x="20.3" y="7.7" class="st1" width="2.1" height="50.2"/>
	<rect x="26.6" y="7.7" class="st2" width="2.1" height="50.2"/>
	<rect x="24.5" y="7.7" class="st1" width="2.1" height="50.2"/>
	<rect x="30.8" y="7.7" width="2.1" height="50.2"/>
	<rect x="28.7" y="7.7" class="st1" width="2.1" height="50.2"/>
	<rect x="35" y="7.7" width="2.1" height="50.2"/>
	<rect x="32.9" y="7.7" class="st2" width="2.1" height="50.2"/>
	<rect x="39.3" y="7.7" class="st1" width="2.1" height="50.2"/>
	<rect x="37.2" y="7.7" width="2.1" height="50.2"/>
	<rect x="43.5" y="7.7" class="st2" width="2.1" height="50.2"/>
	<rect x="41.4" y="7.7" class="st3" width="2.1" height="50.2"/>
	<rect x="47.7" y="7.7" width="2.1" height="50.2"/>
	<rect x="45.6" y="7.7" class="st2" width="2.1" height="50.2"/>
	<rect x="51.9" y="7.7" class="st2" width="2.1" height="50.2"/>
	<rect x="49.8" y="7.7" class="st1" width="2.1" height="50.2"/>
	<rect x="56.2" y="7.7" class="st1" width="2.1" height="50.2"/>
	<rect x="54" y="7.7" class="st4" width="2.1" height="50.2"/>
	<rect x="58.3" y="7.7" class="st0" width="2.1" height="50.2"/>
	<rect x="62.5" y="7.7" class="st2" width="2.1" height="50.2"/>
	<rect x="60.4" y="7.7" class="st1" width="2.1" height="50.2"/>
	<rect x="66.7" y="7.7" class="st0" width="2.1" height="50.2"/>
	<rect x="64.6" y="7.7" class="st1" width="2.1" height="50.2"/>
	<rect x="70.9" y="7.7" class="st1" width="2.1" height="50.2"/>
	<rect x="73" y="7.7" class="st2" width="2.1" height="50.2"/>
	<rect x="68.8" y="7.7" class="st5" width="2.1" height="50.2"/>
	<rect x="85.7" y="7.7" width="2.1" height="50.2"/>
	<rect x="83.6" y="7.7" class="st5" width="2.1" height="50.2"/>
	<rect x="89.9" y="7.7" class="st2" width="2.1" height="50.2"/>
	<rect x="87.8" y="7.7" class="st2" width="2.1" height="50.2"/>
	<rect x="77.3" y="7.7" class="st1" width="2.1" height="50.2"/>
	<rect x="75.2" y="7.7" class="st2" width="2.1" height="50.2"/>
	<rect x="81.5" y="7.7" class="st1" width="2.1" height="50.2"/>
	<rect x="79.4" y="7.7" class="st2" width="2.1" height="50.2"/>
	<rect x="94.2" y="7.7" class="st1" width="2.1" height="50.2"/>
	<rect x="92.1" y="7.7" class="st2" width="2.1" height="50.2"/>
	<rect x="98.4" y="7.7" class="st1" width="2.1" height="50.2"/>
	<rect x="96.3" y="7.7" class="st5" width="2.1" height="50.2"/>
	<rect x="102.6" y="7.7" class="st1" width="2.1" height="50.2"/>
	<rect x="100.5" y="7.7" class="st5" width="2.1" height="50.2"/>
	<rect x="106.8" y="7.7" class="st0" width="2.1" height="50.2"/>
	<rect x="104.7" y="7.7" class="st2" width="2.1" height="50.2"/>
	<rect x="111.1" y="7.7" width="2.1" height="50.2"/>
	<rect x="108.9" y="7.7" class="st3" width="2.1" height="50.2"/>
	<rect x="115.3" y="7.7" class="st2" width="2.1" height="50.2"/>
	<rect x="113.2" y="7.7" class="st1" width="2.1" height="50.2"/>
	<rect x="119.5" y="7.7" class="st5" width="2.1" height="50.2"/>
	<rect x="117.4" y="7.7" class="st1" width="2.1" height="50.2"/>
	<rect x="123.7" y="7.7" class="st0" width="2.1" height="50.2"/>
	<rect x="125.8" y="7.7" class="st1" width="2.1" height="50.2"/>
	<rect x="121.6" y="7.7" class="st1" width="2.1" height="50.2"/>
	<rect x="130.1" y="7.7" class="st1" width="2.1" height="50.2"/>
	<rect x="127.9" y="7.7" class="st0" width="2.1" height="50.2"/>
	<rect x="9.7" y="7.7" class="st1" width="2.1" height="50.2"/>
	<rect x="7.6" y="7.7" class="st2" width="2.1" height="50.2"/>
</g>
</svg>
