<svg xmlns="http://www.w3.org/2000/svg" xml:space="preserve" id="output" x="0" y="0" version="1.1" viewBox="0 0 430.3 66.1"><style>.st0{fill:#0782c7}.st1{fill:#fff}.st2{fill:#c7204b}.st3{fill:#f0c431}.st5{fill:#6fb353}</style><path d="M154.4 7.6c2.2 0 3.1 1.2 3.1 3.3 0 2.9-.9 3.8-3.1 3.8h-2.9V7.6zm0 6c1.3 0 1.8-.6 1.8-2.6 0-1.5-.5-2.3-1.8-2.3h-1.8v4.9zm4.7 1.1v-1h2.1v-3.1h-2.1v-1h3.2v4.1h2v1zm1.5-8h1.8v1.8h-1.8zm6.7 8.5q.15.6 1.5.6c1.5 0 1.8-.5 1.8-1.4v-.3c-.9.6-1.3.8-2.3.8-1.6 0-2.3-.6-2.3-2.7 0-2.2.7-2.7 2.3-2.7 1 0 1.4.2 2.3.8v-.7h1.1v5c0 1.7-1.1 2.3-2.6 2.3-1.7 0-2.9-.1-3-1.6zm3.4-3.8c-1.1-.8-1.5-1-2.3-1-1 0-1.3.5-1.3 1.8s.3 1.8 1.3 1.8c.8 0 1.1-.2 2.3-1zm2.8 3.3v-1h2.1v-3.1h-2.1v-1h3.2v4.1h2v1zm1.5-8h1.8v1.8H175zm6.7 1.3 1.1-.4v1.9h3.2v1h-3.2v1.9c0 .3-.1 1.2.5 1.2.5 0 1.3-.2 2.6-1.1l.6.8c-1.2 1-2.4 1.4-3.1 1.4-.9 0-1.6-.5-1.6-1.6v-2.5h-1.5v-1h1.5V8zm10.6 6.7v-.8l-.6.3c-1 .5-1.7.5-2.4.5q-1.8 0-1.8-1.5c0-1.5.6-1.5 2.3-1.6l2.5-.2c0-.6-.1-.9-1.8-.9-1.5 0-1.8.1-1.8.9h-1.1c0-1.3.9-1.9 2.9-1.9 2.3 0 2.9.5 2.9 1.7v3.5zm-2.2-2.2c-1.2.1-1.5.3-1.5.7s.2.6 1 .6c.7 0 1.5-.1 2.8-.9v-.6zm10.2 2.2H195v-1h2.1v-5H195v-1h3.2v6.1h2.1zm14.6 0h-1.2v-2.8h-3.3v2.8h-1.2V7.6h1.2v3.1h3.3V7.6h1.2zm1.8 0v-1h2.1v-3.1h-2.1v-1h3.2v4.1h2v1zm1.5-8h1.8v1.8h-1.8zm10.1 4.6c0-.9-.5-.9-1.8-.9s-1.8 0-1.8.6.7.6 1.8.6c1.9 0 2.9.3 2.9 1.5s-.7 1.7-2.9 1.7c-2 0-2.9-.5-2.9-1.9h1.1c0 .9.3.9 1.8.9s1.9-.1 1.9-.7c0-.5-.6-.6-1.9-.6-2.1 0-2.9-.4-2.9-1.6s.6-1.6 2.9-1.6c2 0 2.9.6 2.9 1.9h-1.1zm3.8-3.3 1.1-.4v1.9h3.2v1h-3.2v1.9c0 .3-.1 1.2.5 1.2.5 0 1.3-.2 2.6-1.1l.6.8c-1.2 1-2.4 1.4-3.1 1.4-.9 0-1.6-.5-1.6-1.6v-2.5h-1.5v-1h1.5V8zm5.9 4.1c0-2 .6-2.7 2.9-2.7s2.9.7 2.9 2.7-.6 2.7-2.9 2.7-2.9-.7-2.9-2.7m4.7 0c0-1.3-.2-1.7-1.8-1.7s-1.8.4-1.8 1.7.2 1.7 1.8 1.7c1.6.1 1.8-.3 1.8-1.7m7-.7c0-.7-.2-1-.9-1s-1.1.2-1.9 1.1l-.5.6v2.5h-1.1v-5h1.1v1.3c.9-1.1 1.5-1.4 2.6-1.4q1.8 0 1.8 1.5v.5h-1.1zm6.8 3.3c-.5 1.3-1.5 1.9-2.3 1.9s-1.7-.6-2-1.3l.9-.4c.2.3.4.7 1 .7q.75 0 1.2-.9h-.8l-1.9-5.1h1.1l1.5 4.1h.3l1.5-4.1h1.1zm14.5 0-3.1-5.4v5.4h-1.2V7.6h1.5l3.2 5.6V7.6h1.2v7.1zm4.2-2.1c.1 1 .4 1.2 1.8 1.2 1.1 0 1.6-.2 1.7-.7h1.1c-.2 1.3-.9 1.8-2.8 1.8-2.4 0-2.9-.7-2.9-2.7s.6-2.7 2.9-2.7c2.1 0 2.8.6 2.9 2.2v1h-4.7zm3.7-1c-.1-.9-.4-1.2-1.8-1.2s-1.7.3-1.8 1.2zm3.9-3.6 1.1-.4v1.9h3.2v1h-3.2v1.9c0 .3-.1 1.2.5 1.2.5 0 1.3-.2 2.6-1.1l.6.8c-1.2 1-2.4 1.4-3.1 1.4-.9 0-1.6-.5-1.6-1.6v-2.5h-1.5v-1h1.5V8zm11 1.6h1.1l-1.4 5.2h-1.1l-.9-2.5-.9 2.5h-1.1l-1.4-5.2h1.1l1 3.6.8-2.4h.9l.8 2.4zm2.1 2.5c0-2 .6-2.7 2.9-2.7s2.9.7 2.9 2.7-.6 2.7-2.9 2.7-2.9-.7-2.9-2.7m4.7 0c0-1.3-.2-1.7-1.8-1.7s-1.8.4-1.8 1.7.2 1.7 1.8 1.7c1.6.1 1.8-.3 1.8-1.7m7-.7c0-.7-.2-1-.9-1s-1.1.2-1.9 1.1l-.5.6v2.5h-1.1v-5h1.1v1.3c.9-1.1 1.5-1.4 2.6-1.4q1.8 0 1.8 1.5v.5h-1.1zm6.7 3.3-1.4-2.1h-1.5v2.1h-1.1V7.6h1.1v3.9h1.6l1.5-2h1.3l-1.9 2.5 1.8 2.6zm14.8-5c0-.9-.6-1.1-2-1.1-1.7 0-1.9.3-1.9 1 0 .8.4.9 2.1.9 2.3.1 3 .6 3 2.1 0 1.6-.8 2.2-3.1 2.2-2.1 0-3.1-.6-3.1-2.1h1.2c0 .8.7 1 1.9 1 1.5 0 1.9-.2 1.9-1.1 0-.7-.4-.9-2-.9-1.9-.1-3.1-.5-3.1-2.1 0-1.3.7-2.2 3.1-2.2 2.3 0 3.2.7 3.2 2.2h-1.2zm7.5-.1h1.1l-1.4 5.2h-1.1l-.9-2.5-.9 2.5h-1.1l-1.4-5.2h1.1l1 3.6.8-2.4h.9l.8 2.4zm2.4 5.1v-1h2.1v-3.1H339v-1h3.2v4.1h2v1zm1.5-8h1.8v1.8h-1.8zm6.7 1.3 1.1-.4v1.9h3.2v1h-3.2v1.9c0 .3-.1 1.2.5 1.2.5 0 1.3-.2 2.6-1.1l.6.8c-1.2 1-2.4 1.4-3.1 1.4-.9 0-1.6-.5-1.6-1.6v-2.5h-1.5v-1h1.5V8zm11.5 5.6v1.1h-5.5v-1.1l3.9-3h-3.9v-1h5.6v1.1l-3.9 3h3.8zm2.9-1c.1 1 .4 1.2 1.8 1.2 1.1 0 1.6-.2 1.7-.7h1.1c-.2 1.3-.9 1.8-2.8 1.8-2.4 0-2.9-.7-2.9-2.7s.6-2.7 2.9-2.7c2.1 0 2.8.6 2.9 2.2v1h-4.7zm3.6-1c-.1-.9-.4-1.2-1.8-1.2s-1.7.3-1.8 1.2zm7.2-.2c0-.7-.2-1-.9-1s-1.1.2-1.9 1.1l-.5.6v2.5H368v-5h1.1v1.3c.9-1.1 1.5-1.4 2.6-1.4q1.8 0 1.8 1.5v.5h-1.1zm8.2 3.3h-5.3v-1h2.1v-5h-2.1v-1h3.2v6.1h2.1zm6.4 0v-.8l-.6.3c-1 .5-1.7.5-2.4.5q-1.8 0-1.8-1.5c0-1.5.6-1.5 2.3-1.6l2.5-.2c0-.6-.1-.9-1.8-.9-1.5 0-1.8.1-1.8.9h-1.1c0-1.3.9-1.9 2.9-1.9 2.3 0 2.9.5 2.9 1.7v3.5zm-2.2-2.2c-1.2.1-1.5.3-1.5.7s.2.6 1 .6c.7 0 1.5-.1 2.8-.9v-.6zm9.2-1c0-.7-.2-1-.9-1s-1.1.2-1.9 1.1l-.5.6v2.5h-1.1V9.6h1.1v1.3c.9-1.1 1.5-1.4 2.6-1.4q1.8 0 1.8 1.5v3.8H394zm8.4-4v7.2h-1.1v-.6c-.9.6-1.3.8-2.3.8-1.6 0-2.3-.6-2.3-2.7 0-2.2.7-2.7 2.3-2.7 1 0 1.4.2 2.3.8V7.5zm-1.1 3.9c-1.2-.8-1.5-1-2.3-1-1 0-1.3.5-1.3 1.8S398 14 399 14c.8 0 1.1-.2 2.3-1zM152.7 26.5v2.6h-1.2V22h3.3c1.6 0 2.5.6 2.5 2.2 0 1.3-.7 2-1.8 2.2l2 2.7H156l-2-2.6zm2-1.1c.9 0 1.3-.3 1.3-1.1s-.6-1.1-1.4-1.1h-2v2.2zM160 27c.1 1 .4 1.2 1.8 1.2 1.1 0 1.6-.2 1.7-.7h1.1c-.2 1.3-.9 1.8-2.8 1.8-2.4 0-2.9-.7-2.9-2.7s.6-2.7 2.9-2.7c2.1 0 2.8.6 2.9 2.2v1zm3.6-1c-.1-.9-.4-1.2-1.8-1.2s-1.7.3-1.8 1.2zm-3.3-2.7-.3-.7 3.1-1.5.5 1.2zm10.7 2.4c0-.9-.5-.9-1.8-.9s-1.8 0-1.8.6.7.6 1.8.6c1.9 0 2.9.3 2.9 1.5s-.7 1.7-2.9 1.7c-2 0-2.9-.5-2.9-1.9h1.1c0 .9.3.9 1.8.9s1.9-.1 1.9-.7c0-.5-.6-.6-1.9-.6-2.1 0-2.9-.4-2.9-1.6s.6-1.6 2.9-1.6c2 0 2.9.6 2.9 1.9H171zm3.8 1.3c.1 1 .4 1.2 1.8 1.2 1.1 0 1.6-.2 1.7-.7h1.1c-.2 1.3-.9 1.8-2.8 1.8-2.4 0-2.9-.7-2.9-2.7s.6-2.7 2.9-2.7c2.1 0 2.8.6 2.9 2.2v1zm3.6-1c-.1-.9-.4-1.2-1.8-1.2s-1.7.3-1.8 1.2zm7.4 3.1v-.8l-.6.3c-1 .5-1.7.5-2.4.5q-1.8 0-1.8-1.5c0-1.5.6-1.5 2.3-1.6l2.5-.2c0-.6-.1-.9-1.8-.9-1.5 0-1.8.1-1.8.9h-1.1c0-1.3.9-1.9 2.9-1.9 2.3 0 2.9.5 2.9 1.7v3.5zm-2.3-2.2c-1.2.1-1.5.3-1.5.7s.2.6 1 .6c.7 0 1.5-.1 2.8-.9v-.6zm6 .3c0 .7.2 1 .9 1s1.1-.2 1.9-1.1l.5-.6V24h1.1v5.2h-1.1v-1.3c-.9 1.1-1.5 1.4-2.6 1.4q-1.8 0-1.8-1.5V24h1.1zm17.9-1.5c0-.9-.5-.9-1.8-.9s-1.8 0-1.8.6.7.6 1.8.6c1.9 0 2.9.3 2.9 1.5s-.7 1.7-2.9 1.7c-2 0-2.9-.5-2.9-1.9h1.1c0 .9.3.9 1.8.9s1.9-.1 1.9-.7c0-.5-.6-.6-1.9-.6-2.1 0-2.9-.4-2.9-1.6s.6-1.6 2.9-1.6c2 0 2.9.6 2.9 1.9h-1.1zm3.7 1.5c0 .7.2 1 .9 1s1.1-.2 1.9-1.1l.5-.6V24h1.1v5.2h-1.1v-1.3c-.9 1.1-1.5 1.4-2.6 1.4q-1.8 0-1.8-1.5V24h1.1zm6.2 1.9v-1h2.1V25h-2.1v-1h3.2v4.1h2v1zm1.5-8h1.8v1.8h-1.8zm10.2 4.6c0-.9-.5-.9-1.8-.9s-1.8 0-1.8.6.7.6 1.8.6c1.9 0 2.9.3 2.9 1.5s-.7 1.7-2.9 1.7c-2 0-2.9-.5-2.9-1.9h1.1c0 .9.3.9 1.8.9s1.9-.1 1.9-.7c0-.5-.6-.6-1.9-.6-2.1 0-2.9-.4-2.9-1.6s.6-1.6 2.9-1.6c2 0 2.9.6 2.9 1.9H229zm7.2 0c0-.9-.5-.9-1.8-.9s-1.8 0-1.8.6.7.6 1.8.6c1.9 0 2.9.3 2.9 1.5s-.7 1.7-2.9 1.7c-2 0-2.9-.5-2.9-1.9h1.1c0 .9.3.9 1.8.9s1.9-.1 1.9-.7c0-.5-.6-.6-1.9-.6-2.1 0-2.9-.4-2.9-1.6s.6-1.6 2.9-1.6c2 0 2.9.6 2.9 1.9h-1.1zm3.7 1.3c.1 1 .4 1.2 1.8 1.2 1.1 0 1.6-.2 1.7-.7h1.1c-.2 1.3-.9 1.8-2.8 1.8-2.4 0-2.9-.7-2.9-2.7s.6-2.7 2.9-2.7c2.1 0 2.8.6 2.9 2.2v1zm3.6-1c-.1-.9-.4-1.2-1.8-1.2s-1.7.3-1.8 1.2zm15.6-4.1v7.2H258v-.6c-.9.6-1.3.8-2.3.8-1.6 0-2.3-.6-2.3-2.7 0-2.2.7-2.7 2.3-2.7 1 0 1.4.2 2.3.8V22zm-1.1 3.9c-1.2-.8-1.5-1-2.3-1-1 0-1.3.5-1.3 1.8s.3 1.8 1.3 1.8c.8 0 1.1-.2 2.3-1zm5.3-.1-.8-.3.6-1.9h-.7v-1.7h2.1v1.6zm9 .2c0-.7-.2-1-.9-1s-1.1.2-1.9 1.1l-.5.6v2.5h-1.1V22h1.1v3.2c.9-1.1 1.5-1.4 2.6-1.4q1.8 0 1.8 1.5v3.8h-1.1zm3 3.2v-1h2.1V25h-2.1v-1h3.2v4.1h2v1zm1.4-8h1.8v1.8h-1.8zm10.2 4.6c0-.9-.5-.9-1.8-.9s-1.8 0-1.8.6.7.6 1.8.6c1.9 0 2.9.3 2.9 1.5s-.7 1.7-2.9 1.7c-2 0-2.9-.5-2.9-1.9h1.1c0 .9.3.9 1.8.9s1.9-.1 1.9-.7c0-.5-.6-.6-1.9-.6-2.1 0-2.9-.4-2.9-1.6s.6-1.6 2.9-1.6c2 0 2.9.6 2.9 1.9h-1.1zm3.7-3.3 1.1-.4v2h3.2v1h-3.2v1.9c0 .3-.1 1.2.5 1.2.5 0 1.3-.2 2.6-1.1l.6.8c-1.2 1-2.4 1.4-3.1 1.4-.9 0-1.6-.5-1.6-1.6V25h-1.5v-1h1.5v-1.6zm5.9 4.1c0-2 .6-2.7 2.9-2.7s2.9.7 2.9 2.7-.6 2.7-2.9 2.7-2.9-.7-2.9-2.7m4.8 0c0-1.3-.2-1.7-1.8-1.7s-1.8.4-1.8 1.7.2 1.7 1.8 1.7c1.6.1 1.8-.3 1.8-1.7m2.8 2.6v-1h2.1V25h-2.1v-1h3.2v4.1h2v1zm1.4-8h1.8v1.8h-1.8zm10 4.7c0-.7-.2-1-.9-1s-1.1.2-1.9 1.1l-.5.6V29h-1.1v-5h1.1v1.3c.9-1.1 1.5-1.4 2.6-1.4q1.8 0 1.8 1.5v.5h-1.1zm3.9 1.2c.1 1 .4 1.2 1.8 1.2 1.1 0 1.6-.2 1.7-.7h1.1c-.2 1.3-.9 1.8-2.8 1.8-2.4 0-2.9-.7-2.9-2.7s.6-2.7 2.9-2.7c2.1 0 2.8.6 2.9 2.2v1zm3.6-1c-.1-.9-.4-1.2-1.8-1.2s-1.7.3-1.8 1.2zm14.4-.1c0-.7-.2-1-.9-1s-1.1.2-1.9 1.1l-.5.6v2.5H333V24h1.1v1.3c.9-1.1 1.5-1.4 2.6-1.4q1.8 0 1.8 1.5v3.8h-1.1zm4 1.3c0 .7.2 1 .9 1s1.1-.2 1.9-1.1l.5-.6V24h1.1v5.2h-1.1v-1.3c-.9 1.1-1.5 1.4-2.6 1.4q-1.8 0-1.8-1.5V24h1.1zm6.9-2.6c.7-.7 1.1-.8 1.6-.8s.8.3.8.8c.8-.7 1.1-.8 1.6-.8s.8.2.8.7v4.6H352v-3.9c0-.2-.1-.4-.3-.4s-.6.3-1.1.8v3.5h-1v-3.9c0-.2-.1-.4-.3-.4s-.6.3-1.1.8v3.5h-1.1V24h1.1zm7.4 2.4c.1 1 .4 1.2 1.8 1.2 1.1 0 1.6-.2 1.7-.7h1.1c-.2 1.3-.9 1.8-2.8 1.8-2.4 0-2.9-.7-2.9-2.7s.6-2.7 2.9-2.7c2.1 0 2.8.6 2.9 2.2v1zm3.7-1c-.1-.9-.4-1.2-1.8-1.2s-1.7.3-1.8 1.2zm-3.4-2.7-.3-.7 3.1-1.5.5 1.2zm10.5 2.5c0-.7-.2-1-.9-1s-1.1.2-1.9 1.1l-.5.6V29h-1.1v-5h1.1v1.3c.9-1.1 1.5-1.4 2.6-1.4q1.8 0 1.8 1.5v.5h-1.1zm3 3.3v-1h2.1V25h-2.1v-1h3.2v4.1h2v1zm1.5-8h1.8v1.8H371zm10.1 7.4c-.9.6-1.3.8-2.3.8-1.6 0-2.3-.6-2.3-2.7 0-2.2.7-2.7 2.3-2.7 1 0 1.4.2 2.3.8V24h1.1v7.2h-1.1zm0-2.7c-1.2-.8-1.5-1-2.3-1-1 0-1.3.5-1.3 1.8s.3 1.8 1.3 1.8c.8 0 1.1-.2 2.3-1zm3.8 1.4c0 .7.2 1 .9 1s1.1-.2 1.9-1.1l.5-.6V24h1.1v5.2h-1.1v-1.3c-.9 1.1-1.5 1.4-2.6 1.4q-1.8 0-1.8-1.5V24h1.1zm7.2-.2c.1 1 .4 1.2 1.8 1.2 1.1 0 1.6-.2 1.7-.7h1.1c-.2 1.3-.9 1.8-2.8 1.8-2.4 0-2.9-.7-2.9-2.7s.6-2.7 2.9-2.7c2.1 0 2.8.6 2.9 2.2v1zm3.6-1c-.1-.9-.4-1.2-1.8-1.2s-1.7.3-1.8 1.2zM155.8 43.5l-3.1-5.4v5.4h-1.2v-7.1h1.5l3.2 5.6v-5.6h1.2v7.1zm4.2-2.1c.1 1 .4 1.2 1.8 1.2 1.1 0 1.6-.2 1.7-.7h1.1c-.2 1.3-.9 1.8-2.8 1.8-2.4 0-2.9-.7-2.9-2.7s.6-2.7 2.9-2.7c2.1 0 2.8.6 2.9 2.2v1zm3.6-1c-.1-.9-.4-1.2-1.8-1.2s-1.7.3-1.8 1.2zm4-3.6 1.1-.4v1.9h3.2v1h-3.2v1.9c0 .3-.1 1.2.5 1.2.5 0 1.3-.2 2.6-1.1l.6.8c-1.2 1-2.4 1.4-3.1 1.4-.9 0-1.6-.5-1.6-1.6v-2.5h-1.5v-1h1.5v-1.6zm11.5 5.6v1.1h-5.5v-1.1l3.9-3h-3.9v-1.1h5.6v1.1l-3.9 3zm6.7-4h1.1l-1.4 5.2h-1.1l-.9-2.5-.9 2.5h-1.1l-1.4-5.2h1.1l1 3.6.8-2.4h.9l.8 2.4zm3.4 3c.1 1 .4 1.2 1.8 1.2 1.1 0 1.6-.2 1.7-.7h1.1c-.2 1.3-.9 1.8-2.8 1.8-2.4 0-2.9-.7-2.9-2.7s.6-2.7 2.9-2.7c2.1 0 2.8.6 2.9 2.2v1zm3.6-1c-.1-.9-.4-1.2-1.8-1.2s-1.7.3-1.8 1.2zm7.2-.2c0-.7-.2-1-.9-1s-1.1.2-1.9 1.1l-.5.6v2.5h-1.1v-5.2h1.1v1.3c.9-1.1 1.5-1.4 2.6-1.4q1.8 0 1.8 1.5v.5H200zm6.6 3.3-1.4-2.1h-1.5v2.1h-1.1v-7.1h1.1v3.9h1.6l1.5-2h1.3l-1.9 2.5 1.8 2.6zm12.9-7.1c2.2 0 3.1 1.2 3.1 3.3 0 2.9-.9 3.8-3.1 3.8h-2.9v-7.1zm0 6c1.3 0 1.8-.6 1.8-2.6 0-1.5-.5-2.3-1.8-2.3h-1.8v4.9zm4.6 1.1v-1h2.1v-3.1h-2.1v-1h3.2v4.1h2v1zm1.5-8h1.8v1.8h-1.8zm6.8 8.5q.15.6 1.5.6c1.5 0 1.8-.5 1.8-1.4v-.3c-.9.6-1.3.8-2.3.8-1.6 0-2.3-.6-2.3-2.7 0-2.2.7-2.7 2.3-2.7 1 0 1.4.2 2.3.8v-.6h1.1v5c0 1.7-1.1 2.3-2.6 2.3-1.7 0-2.9-.1-3-1.6h1.2zm3.3-3.8c-1.1-.8-1.5-1-2.3-1-1 0-1.3.5-1.3 1.8s.3 1.8 1.3 1.8c.8 0 1.1-.2 2.3-1zm2.8 3.3v-1h2.1v-3.1h-2.1v-1h3.2v4.1h2v1zm1.5-8h1.8v1.8H240zm6.7 1.3 1.1-.4v1.9h3.2v1h-3.2v1.9c0 .3-.1 1.2.5 1.2.5 0 1.3-.2 2.6-1.1l.6.8c-1.2 1-2.4 1.4-3.1 1.4-.9 0-1.6-.5-1.6-1.6v-2.5h-1.5v-1h1.5v-1.6zm10.7 6.7v-.8l-.6.3c-1 .5-1.7.5-2.4.5q-1.8 0-1.8-1.5c0-1.5.6-1.5 2.3-1.6l2.5-.2c0-.6-.1-.9-1.8-.9-1.5 0-1.8.1-1.8.9h-1.1c0-1.3.9-1.9 2.9-1.9 2.3 0 2.9.5 2.9 1.7v3.5zm-2.2-2.2c-1.2.1-1.5.3-1.5.7s.2.6 1 .6c.7 0 1.5-.1 2.8-.9v-.6zm10.2 2.2h-5.3v-1h2.1v-5h-2.1v-1h3.2v6.1h2.1zm2.9-2.1c.1 1 .4 1.2 1.8 1.2 1.1 0 1.6-.2 1.7-.7h1.1c-.2 1.3-.9 1.8-2.8 1.8-2.4 0-2.9-.7-2.9-2.7s.6-2.7 2.9-2.7c2.1 0 2.8.6 2.9 2.2v1zm3.6-1c-.1-.9-.4-1.2-1.8-1.2s-1.7.3-1.8 1.2zm15 3.1-.2-1c-.4.8-1.1 1.2-2 1.2-2.5 0-3.1-1.1-3.1-3.9 0-2.4.7-3.5 3.2-3.5 2.1 0 2.9.8 3 2.4h-1.2c0-.7-.4-1.3-1.8-1.3-1.9 0-2 .8-2 2.4 0 2.1.2 2.8 2.1 2.8 1.4 0 1.8-.6 1.8-1.7h-3v-1h4.1v3.6zm3.3-2.1c.1 1 .4 1.2 1.8 1.2 1.1 0 1.6-.2 1.7-.7h1.1c-.2 1.3-.9 1.8-2.8 1.8-2.4 0-2.9-.7-2.9-2.7s.6-2.7 2.9-2.7c2.1 0 2.8.6 2.9 2.2v1zm3.6-1c-.1-.9-.4-1.2-1.8-1.2s-1.7.3-1.8 1.2zm7.4-.3c0-.9-.5-.9-1.8-.9s-1.8 0-1.8.6.7.6 1.8.6c1.9 0 2.9.3 2.9 1.5s-.7 1.7-2.9 1.7c-2 0-2.9-.5-2.9-1.9h1.1c0 .9.3.9 1.8.9s1.9-.1 1.9-.7c0-.5-.6-.6-1.9-.6-2.1 0-2.9-.4-2.9-1.6s.6-1.6 2.9-1.6c2 0 2.9.6 2.9 1.9zm8.3 1.7c-.2 1.4-.9 1.9-2.9 1.9-2.4 0-2.9-.7-2.9-2.7s.6-2.7 2.9-2.7c2.2 0 2.8.6 2.9 2.3h-1.1c-.1-1-.4-1.3-1.8-1.3-1.6 0-1.8.4-1.8 1.7s.2 1.7 1.8 1.7c1.2 0 1.6-.2 1.8-.9zm5.9-1.5c0-.7-.2-1-.9-1s-1.1.2-1.9 1.1l-.5.6v2.5H311v-7.1h1.1v3.2c.9-1.1 1.5-1.4 2.6-1.4q1.8 0 1.8 1.5v3.8h-1.1zm3 3.2v-1h2.1v-3.1h-2.1v-1h3.2v4.1h2v1zm1.5-8h1.8v1.8h-1.8zm11.2 6.3c-.2 1.4-.9 1.9-2.9 1.9-2.4 0-2.9-.7-2.9-2.7s.6-2.7 2.9-2.7c2.2 0 2.8.6 2.9 2.3H330c-.1-1-.4-1.3-1.8-1.3-1.6 0-1.8.4-1.8 1.7s.2 1.7 1.8 1.7c1.2 0 1.6-.2 1.8-.9zm5.9-1.5c0-.7-.2-1-.9-1s-1.1.2-1.9 1.1l-.5.6v2.5h-1.1v-7.1h1.1v3.2c.9-1.1 1.5-1.4 2.6-1.4q1.8 0 1.8 1.5v3.8H337zm4-3.5 1.1-.4v1.9h3.2v1H342v1.9c0 .3-.1 1.2.5 1.2.5 0 1.3-.2 2.6-1.1l.6.8c-1.2 1-2.4 1.4-3.1 1.4-.9 0-1.6-.5-1.6-1.6v-2.5h-1.5v-1h1.5zm7.1 4.6c.1 1 .4 1.2 1.8 1.2 1.1 0 1.6-.2 1.7-.7h1.1c-.2 1.3-.9 1.8-2.8 1.8-2.4 0-2.9-.7-2.9-2.7s.6-2.7 2.9-2.7c2.1 0 2.8.6 2.9 2.2v1zm3.7-1c-.1-.9-.4-1.2-1.8-1.2s-1.7.3-1.8 1.2zm14.6-1.9c0-.9-.6-1.1-2-1.1-1.7 0-1.9.3-1.9 1 0 .8.4.9 2.1.9 2.3.1 3 .6 3 2.1 0 1.6-.8 2.2-3.1 2.2-2.1 0-3.1-.6-3.1-2.1h1.2c0 .8.7 1 1.9 1 1.5 0 1.9-.2 1.9-1.1 0-.7-.4-.9-2-.9-1.9-.1-3.1-.5-3.1-2.1 0-1.3.7-2.2 3.1-2.2 2.3 0 3.2.7 3.2 2.2zm8.2 3.3c-.2 1.4-.9 1.9-2.9 1.9-2.4 0-2.9-.7-2.9-2.7s.6-2.7 2.9-2.7c2.2 0 2.8.6 2.9 2.3h-1.1c-.1-1-.4-1.3-1.8-1.3-1.6 0-1.8.4-1.8 1.7s.2 1.7 1.8 1.7c1.2 0 1.6-.2 1.8-.9zm5.9-1.5c0-.7-.2-1-.9-1s-1.1.2-1.9 1.1l-.5.6v2.5h-1.1v-7.1h1.1v3.2c.9-1.1 1.5-1.4 2.6-1.4q1.8 0 1.8 1.5v3.8h-1.1zm7.8-1.9h1.1l-1.4 5.2h-1l-.9-2.5-.9 2.5h-1.1l-1.4-5.2h1.1l1 3.6.8-2.4h.9l.8 2.4zm3.4 3c.1 1 .4 1.2 1.8 1.2 1.1 0 1.6-.2 1.7-.7h1.1c-.2 1.3-.9 1.8-2.8 1.8-2.4 0-2.9-.7-2.9-2.7s.6-2.7 2.9-2.7c2.1 0 2.8.6 2.9 2.2v1zm3.6-1c-.1-.9-.4-1.2-1.8-1.2s-1.7.3-1.8 1.2zm2.9 3.1v-1h2.1v-3.1h-2.1v-1h3.2v4.1h2v1zm1.5-8h1.8v1.8h-1.8zm11 6.9v1.1h-5.5v-1.1l3.9-3h-3.9v-1.1h5.6v1.1l-3.9 3zm-258 12.9v2.6h-1.2v-7.1h3.3c1.6 0 2.5.6 2.5 2.2 0 1.3-.7 2-1.8 2.2l2 2.7H156l-2-2.6zm2-1.1c.9 0 1.3-.3 1.3-1.1s-.6-1.1-1.4-1.1h-2v2.2zm5.3 1.6c.1 1 .4 1.2 1.8 1.2 1.1 0 1.6-.2 1.7-.7h1.1c-.2 1.3-.9 1.8-2.8 1.8-2.4 0-2.9-.7-2.9-2.7s.6-2.7 2.9-2.7c2.1 0 2.8.6 2.9 2.2v1zm3.6-1c-.1-.9-.4-1.2-1.8-1.2s-1.7.3-1.8 1.2zm4-3.6 1.1-.4v1.9h3.2v1h-3.2v1.9c0 .3-.1 1.2.5 1.2.5 0 1.3-.2 2.6-1.1l.6.8c-1.2 1-2.4 1.4-3.1 1.4-.9 0-1.6-.5-1.6-1.6v-2.5h-1.5v-1h1.5v-1.6zm7.2 4.6c.1 1 .4 1.2 1.8 1.2 1.1 0 1.6-.2 1.7-.7h1.1c-.2 1.3-.9 1.8-2.8 1.8-2.4 0-2.9-.7-2.9-2.7s.6-2.7 2.9-2.7c2.1 0 2.8.6 2.9 2.2v1zm3.6-1c-.1-.9-.4-1.2-1.8-1.2s-1.7.3-1.8 1.2zm14.6-.3c0-.9-.5-.9-1.8-.9s-1.8 0-1.8.6.7.6 1.8.6c1.9 0 2.9.3 2.9 1.5s-.7 1.7-2.9 1.7c-2 0-2.9-.5-2.9-1.9h1.1c0 .9.3.9 1.8.9s1.9-.1 1.9-.7c0-.5-.6-.6-1.9-.6-2.1 0-2.9-.4-2.9-1.6s.6-1.6 2.9-1.6c2 0 2.9.6 2.9 1.9zm4.3 3.4-2-5.1h1.1l1.6 4.1h.4l1.6-4.1h1.1l-2 5.1zm5.6 0v-1h2.1v-3.1h-2.1v-1h3.2v4.1h2v1zm1.5-8h1.8v1.8h-1.8zm11 6.9v1.1h-5.5v-1.1l3.9-3h-3.9v-1.1h5.6v1.1l-3.9 3zm7.2 0v1.1h-5.5v-1.1l3.9-3h-3.9v-1.1h5.6v1.1l-3.9 3zm2.9-1c.1 1 .4 1.2 1.8 1.2 1.1 0 1.6-.2 1.7-.7h1.1c-.2 1.3-.9 1.8-2.8 1.8-2.4 0-2.9-.7-2.9-2.7s.6-2.7 2.9-2.7c2.1 0 2.8.6 2.9 2.2v1zm3.6-1c-.1-.9-.4-1.2-1.8-1.2s-1.7.3-1.8 1.2zm7.2-.2c0-.7-.2-1-.9-1s-1.1.2-1.9 1.1l-.5.6v2.5h-1.1v-5.2h1.1V54c.9-1.1 1.5-1.4 2.6-1.4q1.8 0 1.8 1.5v.5zm7.4 3.3v-.8l-.6.3c-1 .5-1.7.5-2.4.5q-1.8 0-1.8-1.5c0-1.5.6-1.5 2.3-1.6l2.5-.2c0-.6-.1-.9-1.8-.9-1.5 0-1.8.1-1.8.9H239c0-1.3.9-1.9 2.9-1.9 2.3 0 2.9.5 2.9 1.7v3.5zm-2.2-2.2c-1.2.1-1.5.3-1.5.7s.2.6 1 .6c.7 0 1.5-.1 2.8-.9v-.6zm17.6-5v7.2H258v-.6c-.9.6-1.3.8-2.3.8-1.6 0-2.3-.6-2.3-2.7 0-2.2.7-2.7 2.3-2.7 1 0 1.4.2 2.3.8v-2.7zm-1.1 3.9c-1.2-.8-1.5-1-2.3-1-1 0-1.3.5-1.3 1.8s.3 1.8 1.3 1.8c.8 0 1.1-.2 2.3-1zm2.9 3.3v-1h2.1v-3.1h-2.1v-1h3.2v4.1h2v1zm1.4-8h1.8v1.8h-1.8zm17.4 4.6c0-.9-.5-.9-1.8-.9s-1.8 0-1.8.6.7.6 1.8.6c1.9 0 2.9.3 2.9 1.5s-.7 1.7-2.9 1.7c-2 0-2.9-.5-2.9-1.9h1.1c0 .9.3.9 1.8.9s1.9-.1 1.9-.7c0-.5-.6-.6-1.9-.6-2.1 0-2.9-.4-2.9-1.6s.6-1.6 2.9-1.6c2 0 2.9.6 2.9 1.9zm3.7-3.3 1.1-.4v1.9h3.2v1h-3.2v1.9c0 .3-.1 1.2.5 1.2.5 0 1.3-.2 2.6-1.1l.6.8c-1.2 1-2.4 1.4-3.1 1.4-.9 0-1.6-.5-1.6-1.6v-2.5H282v-1h1.5v-1.6zm5.9 4.1c0-2 .6-2.7 2.9-2.7 2.4 0 2.9.7 2.9 2.7s-.6 2.7-2.9 2.7c-2.3.1-2.9-.7-2.9-2.7m4.8 0c0-1.3-.2-1.7-1.8-1.7s-1.8.4-1.8 1.7.2 1.7 1.8 1.7c1.6.1 1.8-.3 1.8-1.7m7-.7c0-.7-.2-1-.9-1s-1.1.2-1.9 1.1l-.5.6v2.5h-1.1v-5.2h1.1V54c.9-1.1 1.5-1.4 2.6-1.4q1.8 0 1.8 1.5v.5zm3 3.3v-1h2.1v-3.1h-2.1v-1h3.2v4.1h2v1zm1.4-8h1.8v1.8h-1.8zm10.2 8v-.8l-.6.3c-1 .5-1.7.5-2.4.5q-1.8 0-1.8-1.5c0-1.5.6-1.5 2.3-1.6l2.5-.2c0-.6-.1-.9-1.8-.9-1.5 0-1.8.1-1.8.9H311c0-1.3.9-1.9 2.9-1.9 2.3 0 2.9.5 2.9 1.7v3.5zm-2.2-2.2c-1.2.1-1.5.3-1.5.7s.2.6 1 .6c.7 0 1.5-.1 2.8-.9v-.6zm17.6-5v7.2H330v-.6c-.9.6-1.3.8-2.3.8-1.6 0-2.3-.6-2.3-2.7 0-2.2.7-2.7 2.3-2.7 1 0 1.4.2 2.3.8v-2.7zm-1.1 3.9c-1.2-.8-1.5-1-2.3-1-1 0-1.3.5-1.3 1.8s.3 1.8 1.3 1.8c.8 0 1.1-.2 2.3-1zm2.9 3.3v-1h2.1v-3.1h-2.1v-1h3.2v4.1h2v1zm1.4-8h1.8v1.8h-1.8zm6.8 8.5q.15.6 1.5.6c1.5 0 1.8-.5 1.8-1.4v-.3c-.9.6-1.3.8-2.3.8-1.6 0-2.3-.6-2.3-2.7 0-2.2.7-2.7 2.3-2.7 1 0 1.4.2 2.3.8v-.6h1.1v5c0 1.7-1.1 2.3-2.6 2.3-1.7 0-2.9-.1-3-1.6h1.2zm3.3-3.8c-1.1-.8-1.5-1-2.3-1-1 0-1.3.5-1.3 1.8s.3 1.8 1.3 1.8c.8 0 1.1-.2 2.3-1zm2.9 3.3v-1h2.1v-3.1h-2.1v-1h3.2v4.1h2v1zm1.4-8h1.8v1.8h-1.8zm6.7 1.3 1.1-.4v1.9h3.2v1h-3.2v1.9c0 .3-.1 1.2.5 1.2.5 0 1.3-.2 2.6-1.1l.6.8c-1.2 1-2.4 1.4-3.1 1.4-.9 0-1.6-.5-1.6-1.6v-2.5H354v-1h1.5v-1.6zm10.7 6.7v-.8l-.6.3c-1 .5-1.7.5-2.4.5q-1.8 0-1.8-1.5c0-1.5.6-1.5 2.3-1.6l2.5-.2c0-.6-.1-.9-1.8-.9-1.5 0-1.8.1-1.8.9h-1.1c0-1.3.9-1.9 2.9-1.9 2.3 0 2.9.5 2.9 1.7v3.5zm-2.2-2.2c-1.2.1-1.5.3-1.5.7s.2.6 1 .6c.7 0 1.5-.1 2.8-.9v-.6zm10.2 2.2h-5.3v-1h2.1v-5h-2.1v-1h3.2V57h2.1zm2.9-2.1c.1 1 .4 1.2 1.8 1.2 1.1 0 1.6-.2 1.7-.7h1.1c-.2 1.3-.9 1.8-2.8 1.8-2.4 0-2.9-.7-2.9-2.7s.6-2.7 2.9-2.7c2.1 0 2.8.6 2.9 2.2v1zm3.6-1c-.1-.9-.4-1.2-1.8-1.2s-1.7.3-1.8 1.2z"/><path d="M13.9 7.7H16v50.2h-2.1z" class="st0"/><path d="M11.8 7.7h2.1v50.2h-2.1zm6.4 0h2.1v50.2h-2.1z"/><path d="M16 7.7h2.1v50.2H16z" class="st1"/><path d="M22.4 7.7h2.1v50.2h-2.1z"/><path d="M20.3 7.7h2.1v50.2h-2.1z" class="st1"/><path d="M26.6 7.7h2.1v50.2h-2.1z" class="st2"/><path d="M24.5 7.7h2.1v50.2h-2.1z" class="st1"/><path d="M30.8 7.7h2.1v50.2h-2.1z"/><path d="M28.7 7.7h2.1v50.2h-2.1z" class="st1"/><path d="M35 7.7h2.1v50.2H35z"/><path d="M32.9 7.7H35v50.2h-2.1z" class="st2"/><path d="M39.3 7.7h2.1v50.2h-2.1z" class="st1"/><path d="M37.2 7.7h2.1v50.2h-2.1z"/><path d="M43.5 7.7h2.1v50.2h-2.1z" class="st2"/><path d="M41.4 7.7h2.1v50.2h-2.1z" class="st3"/><path d="M47.7 7.7h2.1v50.2h-2.1z"/><path d="M45.6 7.7h2.1v50.2h-2.1zm6.3 0H54v50.2h-2.1z" class="st2"/><path d="M49.8 7.7h2.1v50.2h-2.1zm6.4 0h2.1v50.2h-2.1z" class="st1"/><path d="M54 7.7h2.1v50.2H54z" style="fill:#929496"/><path d="M58.3 7.7h2.1v50.2h-2.1z" class="st0"/><path d="M62.5 7.7h2.1v50.2h-2.1z" class="st2"/><path d="M60.4 7.7h2.1v50.2h-2.1z" class="st1"/><path d="M66.7 7.7h2.1v50.2h-2.1z" class="st0"/><path d="M64.6 7.7h2.1v50.2h-2.1zm6.3 0H73v50.2h-2.1z" class="st1"/><path d="M73 7.7h2.1v50.2H73z" class="st2"/><path d="M68.8 7.7h2.1v50.2h-2.1z" class="st5"/><path d="M85.7 7.7h2.1v50.2h-2.1z"/><path d="M83.6 7.7h2.1v50.2h-2.1z" class="st5"/><path d="M89.9 7.7H92v50.2h-2.1zm-2.1 0h2.1v50.2h-2.1z" class="st2"/><path d="M77.3 7.7h2.1v50.2h-2.1z" class="st1"/><path d="M75.2 7.7h2.1v50.2h-2.1z" class="st2"/><path d="M81.5 7.7h2.1v50.2h-2.1z" class="st1"/><path d="M79.4 7.7h2.1v50.2h-2.1z" class="st2"/><path d="M94.2 7.7h2.1v50.2h-2.1z" class="st1"/><path d="M92.1 7.7h2.1v50.2h-2.1z" class="st2"/><path d="M98.4 7.7h2.1v50.2h-2.1z" class="st1"/><path d="M96.3 7.7h2.1v50.2h-2.1z" class="st5"/><path d="M102.6 7.7h2.1v50.2h-2.1z" class="st1"/><path d="M100.5 7.7h2.1v50.2h-2.1z" class="st5"/><path d="M106.8 7.7h2.1v50.2h-2.1z" class="st0"/><path d="M104.7 7.7h2.1v50.2h-2.1z" class="st2"/><path d="M111.1 7.7h2.1v50.2h-2.1z"/><path d="M108.9 7.7h2.1v50.2h-2.1z" class="st3"/><path d="M115.3 7.7h2.1v50.2h-2.1z" class="st2"/><path d="M113.2 7.7h2.1v50.2h-2.1z" class="st1"/><path d="M119.5 7.7h2.1v50.2h-2.1z" class="st5"/><path d="M117.4 7.7h2.1v50.2h-2.1z" class="st1"/><path d="M123.7 7.7h2.1v50.2h-2.1z" class="st0"/><path d="M125.8 7.7h2.1v50.2h-2.1zm-4.2 0h2.1v50.2h-2.1zm8.5 0h2.1v50.2h-2.1z" class="st1"/><path d="M127.9 7.7h2.1v50.2h-2.1z" class="st0"/><path d="M9.7 7.7h2.1v50.2H9.7z" class="st1"/><path d="M7.6 7.7h2.1v50.2H7.6z" class="st2"/></svg>